<svg id="bcc-forbund" data-name="Layer 1" xmlns="http://www.w3.org/2000/svg" viewBox="0 0 489.86 141.73"><defs><style>.cls-1{fill:#014e49;}</style></defs><path class="cls-1" d="M336.91,124q-15.66,0-26.76-5.54a37.38,37.38,0,0,1-17-17.3q-5.89-11.75-5.89-30.31,0-27.11,13.12-40.13t36.53-13a57.88,57.88,0,0,1,22.89,4.34,36.63,36.63,0,0,1,16.25,13.1q6,8.76,6,22.23H362.26a23.6,23.6,0,0,0-3.2-12.65,20.68,20.68,0,0,0-8.88-7.86,29.81,29.81,0,0,0-13-2.69q-10.14,0-16.85,4a23.64,23.64,0,0,0-9.91,11.76q-3.21,7.79-3.21,19.31v3.29q0,11.68,3.21,19.47a23.25,23.25,0,0,0,9.84,11.67q6.63,3.9,16.92,3.9a32.88,32.88,0,0,0,13.57-2.62,20,20,0,0,0,9-7.79A23.51,23.51,0,0,0,363,84.49h19.08q0,13.47-6,22.23a35.82,35.82,0,0,1-16.18,13A59.36,59.36,0,0,1,336.91,124Z"/><path class="cls-1" d="M444.68,124q-15.66,0-26.76-5.54a37.38,37.38,0,0,1-17-17.3Q395,89.43,395,70.87q0-27.11,13.12-40.13t36.53-13a57.88,57.88,0,0,1,22.89,4.34,36.63,36.63,0,0,1,16.25,13.1q6,8.76,6,22.23H470a23.51,23.51,0,0,0-3.21-12.65A20.6,20.6,0,0,0,458,36.88a29.81,29.81,0,0,0-13-2.69q-10.14,0-16.85,4a23.71,23.71,0,0,0-9.92,11.76Q415,57.7,415,69.22v3.29q0,11.68,3.2,19.47a23.31,23.31,0,0,0,9.85,11.67q6.63,3.9,16.92,3.9a32.88,32.88,0,0,0,13.57-2.62,20,20,0,0,0,9-7.79,23.51,23.51,0,0,0,3.21-12.65h19.08q0,13.47-6,22.23a35.82,35.82,0,0,1-16.18,13A59.36,59.36,0,0,1,444.68,124Z"/><path class="cls-1" d="M271.15,82a23.49,23.49,0,0,0-7-8.53A25.31,25.31,0,0,0,254,68.92v-.6a26.88,26.88,0,0,0,8.6-4.86,23.33,23.33,0,0,0,6.05-8,24.87,24.87,0,0,0,2.24-10.63,23.76,23.76,0,0,0-3.74-13.33,24.92,24.92,0,0,0-10.23-8.83,33.39,33.39,0,0,0-14.73-3.15h-57.9V122.22h57.9a39.65,39.65,0,0,0,15.92-3.07,25.78,25.78,0,0,0,11.36-9.36q4.26-6.29,4.26-15.87A26.67,26.67,0,0,0,271.15,82ZM203.68,36.13h34.44a13.25,13.25,0,0,1,9.19,3.15q3.51,3.13,3.51,9.73a12.79,12.79,0,0,1-1.57,6.29,11.21,11.21,0,0,1-4.63,4.49,15.78,15.78,0,0,1-7.55,1.64H203.68Zm46,66.1a15,15,0,0,1-10.09,3.37H203.68V77.75h34.74A18.78,18.78,0,0,1,247,79.48a11.23,11.23,0,0,1,5,4.86,15.7,15.7,0,0,1,1.64,7.34Q253.66,98.87,249.7,102.23Z"/><path class="cls-1" d="M141.73,70.87A70.87,70.87,0,1,1,70.87,0,70.87,70.87,0,0,1,141.73,70.87ZM73.16,21.26H68.57a7.69,7.69,0,0,0-7.66,7.66v4.6a7.69,7.69,0,0,0,7.66,7.66h4.59a7.68,7.68,0,0,0,7.66-7.66v-4.6A7.68,7.68,0,0,0,73.16,21.26ZM96.73,44.89h-4.6a7.68,7.68,0,0,0-7.66,7.66v4.59a7.68,7.68,0,0,0,7.66,7.66h4.6a7.68,7.68,0,0,0,7.66-7.66V52.55A7.68,7.68,0,0,0,96.73,44.89ZM73.16,100.56H68.57a7.68,7.68,0,0,0-7.66,7.66v4.59a7.68,7.68,0,0,0,7.66,7.66h4.59a7.67,7.67,0,0,0,7.66-7.66v-4.59A7.67,7.67,0,0,0,73.16,100.56Zm7.66-43.48v-4.6a7.68,7.68,0,0,0-7.66-7.66H45a7.68,7.68,0,0,0-7.66,7.66v4.6A7.68,7.68,0,0,0,45,64.74h15.9V87h0v2.3a7.69,7.69,0,0,0,7.66,7.66h4.59a7.68,7.68,0,0,0,7.66-7.66v-4.6h0V57.08Z"/></svg>